<svg width="144" height="126" viewBox="0 0 144 126" fill="none" xmlns="http://www.w3.org/2000/svg">
<g clip-path="url(#clip0_7789_23982)">
<path d="M98.2975 -0.013671H41.0809C38.2079 -0.0148075 35.4519 1.13002 33.4188 3.1692C31.3856 5.20838 30.2417 7.97506 30.2383 10.8612V67.1013C30.2417 69.989 31.3851 72.7574 33.4177 74.7993C35.4504 76.8412 38.2063 77.9899 41.0809 77.9933H98.2975C101.169 77.9865 103.922 76.8362 105.951 74.7945C107.98 72.7529 109.121 69.9864 109.123 67.1013V10.874C109.124 7.98829 107.984 5.22025 105.954 3.17854C103.924 1.13683 101.17 -0.0114017 98.2975 -0.013671ZM69.6806 45.7796C62.7251 45.7466 56.0345 43.0963 50.9286 38.3514C45.8227 33.6065 42.6724 27.1117 42.0991 20.1482C41.9916 18.634 42.4847 17.1385 43.4709 15.9883C44.1983 15.1303 45.163 14.5087 46.2426 14.2024C47.3222 13.8961 48.4681 13.9188 49.5348 14.2677C50.6015 14.6167 51.541 15.2761 52.234 16.1623C52.9271 17.0484 53.3424 18.1215 53.4274 19.2452C53.7455 23.3592 55.597 27.2013 58.612 30.0039C61.627 32.8065 65.5835 34.3632 69.6913 34.3632C73.799 34.3632 77.7556 32.8065 80.7706 30.0039C83.7856 27.2013 85.6371 23.3592 85.9552 19.2452C86.0108 18.4984 86.2125 17.7699 86.5488 17.1016C86.8851 16.4332 87.3494 15.8381 87.9151 15.3504C88.4808 14.8626 89.1367 14.4917 89.8453 14.2591C90.5539 14.0264 91.3013 13.9365 92.0445 13.9945C92.7878 14.0525 93.5123 14.2573 94.1767 14.5971C94.841 14.9369 95.4321 15.405 95.916 15.9747C96.3999 16.5443 96.7671 17.2043 96.9967 17.9168C97.2262 18.6293 97.3136 19.3804 97.2537 20.1268C96.7009 27.0985 93.5586 33.6064 88.4507 38.3586C83.3427 43.1108 76.6427 45.7598 69.6806 45.7796Z" fill="#146EB4"/>
<path d="M97.2543 20.1279C96.7215 27.1074 93.5854 33.6276 88.4732 38.3844C83.361 43.1411 76.6496 45.7838 69.6813 45.7838C62.713 45.7838 56.0016 43.1411 50.8894 38.3844C45.7772 33.6276 42.641 27.1074 42.1083 20.1279C42.0007 18.6137 42.4939 17.1182 43.4801 15.968C44.2094 15.1121 45.1753 14.4931 46.2553 14.1894C47.3353 13.8857 48.4808 13.9111 49.5464 14.2623C50.612 14.6134 51.5498 15.2746 52.2409 16.1619C52.932 17.0493 53.3451 18.1228 53.428 19.2463C53.7462 23.3604 55.5976 27.2024 58.6126 30.005C61.6276 32.8076 65.5842 34.3643 69.6919 34.3643C73.7997 34.3643 77.7562 32.8076 80.7712 30.005C83.7862 27.2024 85.6377 23.3604 85.9558 19.2463C86.0114 18.4995 86.2131 17.771 86.5494 17.1027C86.8858 16.4343 87.3501 15.8392 87.9158 15.3515C88.4814 14.8637 89.1374 14.4929 89.846 14.2602C90.5546 14.0275 91.3019 13.9376 92.0452 13.9956C92.7884 14.0536 93.513 14.2584 94.1773 14.5982C94.8416 14.938 95.4327 15.4061 95.9166 15.9758C96.4005 16.5454 96.7678 17.2054 96.9973 17.9179C97.2269 18.6305 97.3142 19.3815 97.2543 20.1279Z" fill="white"/>
<path d="M23.9336 94.9975V124.318C23.9492 124.462 23.9324 124.608 23.8843 124.745C23.8362 124.881 23.7581 125.006 23.6559 125.108C23.5536 125.21 23.4298 125.288 23.2935 125.336C23.1572 125.384 23.0119 125.4 22.8685 125.384H19.2259C19.0823 125.401 18.9367 125.385 18.8001 125.338C18.6634 125.29 18.5392 125.212 18.4367 125.11C18.3343 125.007 18.2563 124.883 18.2085 124.746C18.1607 124.609 18.1444 124.462 18.1608 124.318V122.735C16.5675 124.763 14.1731 125.991 10.9182 125.991C4.95373 125.991 0.0117188 120.834 0.0117188 114.154C0.0117188 107.473 4.92391 102.32 10.8884 102.32C14.1561 102.32 16.5504 103.548 18.131 105.581V94.9975C18.1146 94.8532 18.1309 94.707 18.1787 94.5699C18.2264 94.4328 18.3045 94.3084 18.4069 94.2059C18.5094 94.1034 18.6336 94.0255 18.7703 93.978C18.9069 93.9306 19.0525 93.9148 19.1961 93.9319H22.8387C22.9844 93.9107 23.133 93.9233 23.2731 93.9688C23.4132 94.0143 23.5411 94.0915 23.6468 94.1944C23.7526 94.2974 23.8334 94.4233 23.8831 94.5625C23.9328 94.7017 23.9501 94.8506 23.9336 94.9975ZM18.1608 114.154C18.1608 110.379 15.5237 107.815 11.9663 107.815C8.40888 107.815 5.77598 110.405 5.77598 114.162C5.77598 117.92 8.41314 120.496 11.9705 120.496C15.5279 120.496 18.1608 117.937 18.1608 114.162V114.154Z" fill="black"/>
<path d="M44.8744 102.927C45.0178 102.911 45.163 102.927 45.2993 102.975C45.4356 103.023 45.5595 103.101 45.6617 103.203C45.764 103.305 45.8421 103.43 45.8901 103.566C45.9382 103.703 45.9551 103.849 45.9395 103.993V124.326C45.9551 124.47 45.9382 124.616 45.8901 124.753C45.8421 124.889 45.764 125.014 45.6617 125.116C45.5595 125.218 45.4356 125.296 45.2993 125.344C45.163 125.392 45.0178 125.408 44.8744 125.392H41.2318C41.0884 125.408 40.9431 125.392 40.8068 125.344C40.6706 125.296 40.5467 125.218 40.4444 125.116C40.3422 125.014 40.2641 124.889 40.216 124.753C40.168 124.616 40.1511 124.47 40.1667 124.326V123.085C38.9141 124.985 36.8649 125.999 34.0829 125.999C29.9248 125.999 26.8147 122.785 26.8147 117.282V103.984C26.7984 103.841 26.8147 103.695 26.8622 103.558C26.9098 103.421 26.9874 103.297 27.0894 103.195C27.1913 103.092 27.315 103.014 27.4511 102.966C27.5872 102.919 27.7323 102.902 27.8756 102.919H31.5224C31.6659 102.903 31.8111 102.919 31.9474 102.967C32.0837 103.014 32.2075 103.092 32.3098 103.195C32.4121 103.297 32.4901 103.421 32.5382 103.558C32.5863 103.694 32.6031 103.84 32.5875 103.984V116.824C32.5875 119.392 34.1085 120.607 36.1321 120.607C38.3986 120.607 40.1667 119.293 40.1667 115.899V103.984C40.1503 103.84 40.1666 103.694 40.2143 103.557C40.2621 103.42 40.3402 103.295 40.4426 103.193C40.5451 103.09 40.6693 103.012 40.8059 102.965C40.9426 102.917 41.0882 102.902 41.2318 102.919L44.8744 102.927Z" fill="black"/>
<path d="M68.0334 125.384H63.773C63.5221 125.396 63.2724 125.343 63.0483 125.229C62.8242 125.115 62.6335 124.944 62.4949 124.734L55.1501 115.241V124.319C55.1657 124.463 55.1488 124.609 55.1007 124.745C55.0527 124.882 54.9746 125.006 54.8723 125.108C54.7701 125.211 54.6462 125.289 54.5099 125.336C54.3736 125.384 54.2284 125.401 54.085 125.384H50.4424C50.2988 125.401 50.1532 125.386 50.0165 125.338C49.8799 125.291 49.7557 125.213 49.6532 125.11C49.5508 125.008 49.4727 124.883 49.4249 124.746C49.3772 124.609 49.3609 124.463 49.3773 124.319V94.9981C49.3609 94.8538 49.3772 94.7076 49.4249 94.5705C49.4727 94.4334 49.5508 94.309 49.6532 94.2064C49.7557 94.1039 49.8799 94.0261 50.0165 93.9786C50.1532 93.9312 50.2988 93.9154 50.4424 93.9325H54.085C54.2284 93.9162 54.3736 93.9326 54.5099 93.9803C54.6462 94.0281 54.7701 94.106 54.8723 94.2083C54.9746 94.3106 55.0527 94.4347 55.1007 94.5714C55.1488 94.7081 55.1657 94.854 55.1501 94.9981V112.798L62.0476 103.57C62.1862 103.36 62.3769 103.189 62.601 103.075C62.825 102.961 63.0748 102.908 63.3257 102.92H67.6116C68.4637 102.92 68.7747 103.493 68.2464 104.204L60.7098 114.047L68.6469 124.1C69.1965 124.811 68.9068 125.384 68.0334 125.384Z" fill="black"/>
<path d="M79.9085 102.32C84.8505 102.32 89.0128 105.278 89.0128 111.128V124.327C89.0284 124.471 89.0116 124.617 88.9635 124.753C88.9154 124.89 88.8374 125.014 88.7351 125.117C88.6328 125.219 88.509 125.297 88.3727 125.345C88.2364 125.392 88.0912 125.409 87.9478 125.392H84.4372C84.294 125.409 84.1489 125.393 84.0127 125.345C83.8766 125.297 83.753 125.219 83.651 125.117C83.549 125.014 83.4714 124.89 83.4239 124.753C83.3763 124.616 83.3601 124.471 83.3764 124.327V123.471C82.0983 125.046 80.1513 126.039 77.3139 126.039C73.3347 126.039 69.7773 123.693 69.7773 118.973C69.7773 114.252 73.3347 111.907 77.3139 111.907C80.1513 111.907 82.0898 112.763 83.3764 113.897V111.505C83.3764 108.843 82.0344 107.73 79.9085 107.73C78.2043 107.73 76.9773 108.436 76.5982 109.652C76.3639 110.255 76.1295 110.606 75.4905 110.606H71.9118C71.7639 110.625 71.6136 110.609 71.473 110.559C71.3324 110.509 71.2055 110.426 71.1024 110.318C70.9992 110.21 70.9228 110.079 70.8791 109.936C70.8354 109.792 70.8258 109.641 70.8509 109.493C71.4091 104.897 75.3243 102.359 79.9085 102.359V102.32ZM83.3764 118.934C83.3764 117.222 81.8086 116.14 79.2694 116.14C76.7302 116.14 75.5459 117.317 75.5459 118.934C75.5459 120.552 76.7345 121.733 79.2694 121.733C81.8043 121.733 83.3764 120.552 83.3764 118.934Z" fill="black"/>
<path d="M101.779 102.32C106.721 102.32 110.879 105.278 110.879 111.128V124.327C110.895 124.471 110.879 124.616 110.832 124.753C110.784 124.89 110.706 125.014 110.604 125.117C110.502 125.219 110.379 125.297 110.243 125.345C110.107 125.393 109.961 125.409 109.818 125.392H106.32C106.177 125.41 106.031 125.394 105.895 125.346C105.758 125.299 105.634 125.221 105.531 125.118C105.429 125.016 105.351 124.891 105.303 124.754C105.255 124.617 105.239 124.471 105.255 124.327V123.471C103.977 125.046 102.03 126.039 99.1971 126.039C95.2137 126.039 91.6562 123.693 91.6562 118.973C91.6562 114.252 95.2137 111.907 99.1971 111.907C102.03 111.907 103.969 112.763 105.255 113.897V111.505C105.255 108.843 103.913 107.73 101.792 107.73C100.087 107.73 98.8605 108.436 98.4813 109.652C98.2428 110.255 98.0084 110.606 97.3737 110.606H93.795C93.6469 110.625 93.4965 110.608 93.3558 110.558C93.2151 110.508 93.088 110.426 92.9846 110.318C92.8812 110.21 92.8043 110.079 92.76 109.936C92.7158 109.793 92.7055 109.641 92.7299 109.493C93.2922 104.897 97.2032 102.359 101.792 102.359L101.779 102.32ZM105.243 118.934C105.243 117.222 103.679 116.14 101.14 116.14C98.6006 116.14 97.4163 117.317 97.4163 118.934C97.4163 120.552 98.6006 121.733 101.14 121.733C103.679 121.733 105.243 120.552 105.243 118.934Z" fill="black"/>
<path d="M125.649 102.321C129.807 102.321 132.917 105.535 132.917 111.039V124.306C132.933 124.45 132.917 124.596 132.869 124.733C132.822 124.869 132.744 124.993 132.642 125.096C132.54 125.198 132.417 125.276 132.281 125.324C132.144 125.372 131.999 125.388 131.856 125.372H128.209C128.066 125.388 127.921 125.372 127.785 125.324C127.649 125.276 127.525 125.198 127.423 125.096C127.321 124.993 127.243 124.869 127.196 124.733C127.148 124.596 127.132 124.45 127.148 124.306V111.467C127.148 108.899 125.627 107.684 123.6 107.684C121.333 107.684 119.565 108.997 119.565 112.391V124.332C119.579 124.475 119.561 124.619 119.513 124.754C119.465 124.889 119.387 125.012 119.285 125.113C119.183 125.214 119.06 125.29 118.925 125.337C118.79 125.385 118.646 125.401 118.504 125.385H114.84C114.697 125.401 114.552 125.385 114.415 125.337C114.279 125.289 114.155 125.211 114.053 125.109C113.951 125.006 113.873 124.882 113.825 124.746C113.776 124.609 113.76 124.463 113.775 124.319V103.986C113.76 103.842 113.776 103.696 113.825 103.559C113.873 103.422 113.951 103.298 114.053 103.196C114.155 103.094 114.279 103.016 114.415 102.968C114.552 102.92 114.697 102.904 114.84 102.92H118.487C118.63 102.904 118.775 102.92 118.912 102.968C119.048 103.016 119.171 103.094 119.273 103.196C119.375 103.299 119.453 103.423 119.5 103.559C119.548 103.696 119.564 103.842 119.548 103.986V105.227C120.8 103.327 122.85 102.312 125.632 102.312L125.649 102.321Z" fill="black"/>
<path d="M138.482 91.2305C137.384 91.2263 136.311 91.5495 135.397 92.1592C134.483 92.7689 133.769 93.6376 133.348 94.6551C132.926 95.6726 132.814 96.7931 133.027 97.8743C133.24 98.9555 133.768 99.9489 134.544 100.728C135.32 101.508 136.309 102.038 137.385 102.252C138.461 102.466 139.577 102.354 140.59 101.93C141.603 101.506 142.467 100.79 143.074 99.8718C143.681 98.9536 144.003 97.875 143.999 96.7728C143.993 95.3046 143.41 93.8982 142.377 92.86C141.343 91.8219 139.943 91.2361 138.482 91.2305ZM138.482 92.0865C139.408 92.0865 140.315 92.3626 141.085 92.8798C141.856 93.3971 142.457 94.1324 142.811 94.9926C143.166 95.8528 143.259 96.7994 143.078 97.7126C142.897 98.6258 142.451 99.4646 141.795 100.123C141.14 100.781 140.305 101.23 139.396 101.411C138.487 101.593 137.545 101.5 136.688 101.144C135.832 100.787 135.1 100.184 134.585 99.4096C134.07 98.6355 133.795 97.7253 133.795 96.7942C133.795 96.1756 133.915 95.5629 134.151 94.9913C134.386 94.4196 134.731 93.9002 135.166 93.4625C135.602 93.0249 136.118 92.6778 136.687 92.4409C137.256 92.2041 137.866 92.0822 138.482 92.0822V92.0865ZM136.777 94.2263V99.362H137.63V97.4832H138.733L139.926 99.362H140.778L139.542 97.419C139.672 97.3912 139.8 97.3555 139.926 97.312C140.153 97.2395 140.359 97.1099 140.522 96.9354C140.669 96.7955 140.771 96.6154 140.816 96.4176C140.864 96.2387 140.891 96.0549 140.897 95.8697C140.888 95.6807 140.861 95.493 140.816 95.3091C140.767 95.1164 140.665 94.9414 140.522 94.8041C140.366 94.6187 140.159 94.4846 139.926 94.4189C139.616 94.2878 139.282 94.2278 138.946 94.2434L136.777 94.2263ZM137.63 94.9068H138.733C138.889 94.9 139.045 94.9129 139.197 94.9453C139.35 94.9447 139.499 94.9926 139.623 95.0823C139.742 95.1427 139.845 95.229 139.926 95.3348C140.015 95.473 140.057 95.6368 140.045 95.8013C140.051 95.9691 140.009 96.1352 139.926 96.2806C139.848 96.3993 139.745 96.4988 139.623 96.5716C139.496 96.6187 139.325 96.6615 139.197 96.7086C139.045 96.7445 138.889 96.7574 138.733 96.7471H137.63V94.9068Z" fill="black"/>
</g>
<defs>
<clipPath id="clip0_7789_23982">
<rect width="144" height="126" fill="white"/>
</clipPath>
</defs>
</svg>
